<svg width="27" height="26" viewBox="0 0 27 26" fill="none" xmlns="http://www.w3.org/2000/svg">
<g clip-path="url(#clip0)">
<path d="M24.515 4.29349C24.2643 3.92932 23.9452 3.63135 23.5805 3.41064L23.2955 1.82151C23.0904 0.706906 22.076 -0.0766253 20.9363 0.0116599C20.3095 0.0558025 19.7282 0.353765 19.3521 0.839334C18.9646 1.31387 18.805 1.93186 18.919 2.52779L19.2495 4.35971C18.9532 4.81217 18.7822 5.33084 18.7594 5.89366C18.7594 5.93781 18.7594 5.98195 18.748 6.03713C18.6911 7.18483 18.4631 8.31047 18.0756 9.38093C14.5197 11.4005 10.2001 11.6543 6.46185 10.021C5.4475 9.57957 4.50153 9.01675 3.65814 8.35461C2.94011 7.79179 1.97135 7.72558 1.19634 8.18908C0.421328 8.64154 0.033823 9.49129 0.216178 10.3521C0.421328 11.3342 0.729053 12.2833 1.13935 13.1993C0.956997 13.2875 0.786039 13.4089 0.637875 13.5524C-0.0117659 14.1704 -0.182724 15.0753 0.193384 15.8699C0.546698 16.6093 0.956997 17.3156 1.43568 17.9777C1.33311 18.077 1.24193 18.1874 1.16215 18.3198C0.683464 19.0592 0.74045 19.9862 1.29891 20.6704C2.66658 22.3478 4.43315 23.7273 6.41626 24.6432C8.35379 25.5371 10.4395 26.0006 12.5936 26.0006C12.7531 26.0006 12.9127 26.0006 13.0836 25.9896C16.7421 25.8792 20.1955 24.4115 22.8055 21.8733C25.404 19.3351 26.8971 15.9802 26.9882 12.4378C27.0452 9.51336 26.1904 6.69927 24.515 4.29349ZM3.44159 17.3818C3.3846 17.3707 3.32762 17.3597 3.25923 17.3487C3.23644 17.3487 3.21365 17.3487 3.19085 17.3376C3.15666 17.3376 3.12247 17.3266 3.08828 17.3266C3.07688 17.3266 3.07688 17.3266 3.06548 17.3266C2.55261 16.6534 2.10812 15.9251 1.7548 15.1636C1.65223 14.9429 1.7662 14.7884 1.84598 14.7111C1.90297 14.656 2.03973 14.5567 2.24488 14.6008C2.25628 14.6008 2.25628 14.6008 2.26768 14.6118C2.29047 14.6229 2.32466 14.6229 2.34746 14.6449C2.48422 14.7111 2.63239 14.7774 2.76915 14.8325C3.76071 15.2629 4.80926 15.5719 5.89199 15.7706C6.04015 15.8037 6.19972 15.8258 6.34788 15.8478C6.38207 15.8478 6.41626 15.8589 6.45045 15.8589C6.59862 15.8809 6.75818 15.903 6.90634 15.914C6.91774 15.914 6.92914 15.914 6.94054 15.914C7.0887 15.9251 7.22546 15.9471 7.37363 15.9582C7.40782 15.9582 7.44201 15.9692 7.4762 15.9692C7.62437 15.9802 7.78393 15.9913 7.93209 15.9913C7.95489 15.9913 7.97768 15.9913 8.00048 15.9913C8.13724 15.9913 8.27401 16.0023 8.41078 16.0023C8.44497 16.0023 8.47916 16.0023 8.51335 16.0023C8.53614 16.0023 8.55894 16.0023 8.58173 16.0023C8.7071 16.0023 8.84387 16.0023 8.96924 16.0023C8.99203 16.0023 9.02623 16.0023 9.04902 16.0023C9.17439 16.0023 9.29976 15.9913 9.42513 15.9802C9.47072 15.9802 9.50491 15.9802 9.5391 15.9692C9.68726 15.9582 9.83543 15.9471 9.98359 15.9361C10.0064 15.9361 10.0178 15.9361 10.0406 15.9251C10.1773 15.914 10.3027 15.892 10.4395 15.8809C10.4851 15.8809 10.5193 15.8699 10.5648 15.8589C10.7016 15.8368 10.8498 15.8147 10.9865 15.7926C10.9979 15.7926 11.0093 15.7926 11.0207 15.7926C11.1689 15.7706 11.3171 15.7375 11.4538 15.7154C11.4994 15.7044 11.545 15.6933 11.5792 15.6933C11.7046 15.6713 11.8185 15.6381 11.9439 15.6161C11.9667 15.605 12.0009 15.605 12.0237 15.594C12.1605 15.5609 12.3086 15.5278 12.4454 15.4836C12.491 15.4726 12.5252 15.4616 12.5708 15.4505C12.6847 15.4174 12.7987 15.3843 12.9127 15.3512C12.9469 15.3402 12.9811 15.3291 13.0153 15.3181C13.152 15.274 13.2888 15.2298 13.4256 15.1746C13.4597 15.1636 13.4939 15.1526 13.5395 15.1305C13.6535 15.0864 13.7561 15.0533 13.87 15.0091C13.8928 14.9981 13.9156 14.987 13.9384 14.987L13.8928 15.0201C13.7903 15.0974 13.6877 15.1746 13.5851 15.2519C13.5851 15.2519 13.5737 15.2519 13.5737 15.2629L13.5281 15.296C13.4142 15.3733 13.3002 15.4505 13.1862 15.5278L13.1634 15.5388C13.1634 15.5388 13.1634 15.5388 13.152 15.5388C11.8071 16.4106 10.3027 17.0397 8.69571 17.3707C8.68431 17.3707 8.66151 17.3818 8.65012 17.3818C8.51335 17.4038 8.37658 17.437 8.23982 17.459H8.22842C8.20563 17.459 8.17143 17.4701 8.14864 17.4701C8.03467 17.4921 7.9093 17.5032 7.79533 17.5252L7.74974 17.5363C7.71555 17.5363 7.69275 17.5473 7.65856 17.5473C7.54459 17.5583 7.43061 17.5694 7.31664 17.5804L7.24826 17.5915C7.22547 17.5915 7.21407 17.5915 7.19127 17.5915C7.17988 17.5915 7.16848 17.5915 7.16848 17.5915C7.02032 17.6025 6.86075 17.6135 6.71259 17.6246H6.6784C5.64125 17.6687 4.6155 17.5915 3.61255 17.4038C3.56696 17.4149 3.49858 17.4038 3.44159 17.3818ZM2.07392 9.60164C2.1537 9.5575 2.35885 9.46921 2.5754 9.63475C3.54416 10.3962 4.6155 11.0252 5.75522 11.5329C8.95784 12.9234 12.548 13.111 15.8418 12.1288C15.819 12.1398 15.7962 12.1619 15.7734 12.1729C15.7392 12.195 15.6936 12.2281 15.6594 12.2502C15.6024 12.2943 15.534 12.3274 15.477 12.3716C15.4429 12.3937 15.3973 12.4157 15.3631 12.4488C15.2947 12.493 15.2149 12.5371 15.1465 12.5813C15.1123 12.6033 15.0895 12.6144 15.0554 12.6364C14.9528 12.6916 14.8502 12.7468 14.759 12.802C14.7248 12.8241 14.6906 12.8351 14.6564 12.8572C14.5881 12.8903 14.5197 12.9344 14.4399 12.9675C14.3943 12.9896 14.3601 13.0117 14.3145 13.0337C14.2461 13.0668 14.1892 13.0999 14.1208 13.1331C14.0752 13.1551 14.041 13.1772 13.9954 13.1882C13.927 13.2213 13.8586 13.2544 13.7903 13.2765C13.7561 13.2986 13.7105 13.3096 13.6763 13.3317C13.5851 13.3648 13.4939 13.4089 13.4142 13.442C13.3914 13.4531 13.38 13.4531 13.3572 13.4641C13.2546 13.5083 13.1406 13.5524 13.038 13.5855C13.0039 13.5965 12.9583 13.6076 12.9241 13.6297C12.8557 13.6517 12.7759 13.6848 12.7075 13.7069C12.6619 13.7179 12.6163 13.74 12.5708 13.751C12.5024 13.7731 12.434 13.7952 12.3656 13.8173C12.32 13.8283 12.2744 13.8393 12.2402 13.8614C12.1605 13.8835 12.0921 13.9055 12.0123 13.9276C11.9781 13.9387 11.9325 13.9497 11.8983 13.9607C11.7844 13.9938 11.6704 14.0159 11.5564 14.049C11.5336 14.049 11.5222 14.06 11.4994 14.06C11.4082 14.0821 11.3057 14.1042 11.2145 14.1263C11.1689 14.1373 11.1347 14.1373 11.0891 14.1483C11.0093 14.1594 10.941 14.1814 10.8612 14.1925C10.8156 14.2035 10.77 14.2035 10.7244 14.2145C10.6446 14.2256 10.5762 14.2366 10.4965 14.2477C10.4509 14.2587 10.4053 14.2587 10.3711 14.2697C10.2913 14.2808 10.2001 14.2918 10.1204 14.3028C10.0862 14.3028 10.052 14.3139 10.0178 14.3139C9.90381 14.3249 9.78984 14.3359 9.66447 14.347C9.64167 14.347 9.60748 14.347 9.58469 14.358C9.49351 14.369 9.40233 14.369 9.31116 14.3801C9.26557 14.3801 9.23137 14.3801 9.18579 14.3911C9.10601 14.3911 9.02623 14.4022 8.95784 14.4022C8.91225 14.4022 8.86666 14.4022 8.82108 14.4022C8.74129 14.4022 8.66151 14.4022 8.58173 14.4022C8.53615 14.4022 8.50195 14.4022 8.45636 14.4022C8.35379 14.4022 8.26261 14.4022 8.16004 14.4022C8.13724 14.4022 8.11445 14.4022 8.09165 14.4022C7.97768 14.4022 7.85231 14.3911 7.73834 14.3801C7.70415 14.3801 7.66996 14.3801 7.63577 14.369C7.55598 14.358 7.46481 14.358 7.38503 14.347C7.33944 14.347 7.29385 14.3359 7.25966 14.3359C7.17988 14.3249 7.1001 14.3249 7.02032 14.3139C6.97473 14.3139 6.92914 14.3028 6.89495 14.3028C6.81517 14.2918 6.73538 14.2808 6.64421 14.2697C6.61002 14.2587 6.56443 14.2587 6.53024 14.2477C6.41626 14.2256 6.29089 14.2145 6.17692 14.1925C6.04015 14.1704 5.90339 14.1373 5.76662 14.1152C4.85484 13.9166 3.97726 13.6186 3.13387 13.2434C3.09967 13.2324 3.07688 13.2213 3.04269 13.1993C3.0085 13.1882 2.9857 13.1772 2.95151 13.1551C2.45003 12.1729 2.07392 11.1356 1.85738 10.0541C1.83458 9.77821 1.98275 9.65682 2.07392 9.60164ZM25.2559 12.3937C25.1761 15.5168 23.8654 18.4633 21.5746 20.7035C19.2837 22.9437 16.2407 24.2349 13.0153 24.3342C8.93505 24.4667 5.15117 22.7561 2.63239 19.6551C2.47283 19.4675 2.55261 19.2909 2.60959 19.2027C2.64378 19.1475 2.73496 19.0482 2.87173 19.0151C2.94011 19.004 2.9971 19.004 3.07688 19.0151C3.21365 19.0482 3.36181 19.0702 3.49858 19.0923C3.54416 19.1033 3.58975 19.1033 3.62395 19.1144C3.72652 19.1364 3.8177 19.1475 3.92027 19.1585C3.96586 19.1696 4.02285 19.1696 4.06844 19.1806C4.17101 19.1916 4.26219 19.2027 4.36476 19.2137C4.41035 19.2137 4.45594 19.2247 4.50153 19.2247C4.6155 19.2358 4.74087 19.2468 4.85484 19.2578C4.87764 19.2578 4.90043 19.2578 4.93463 19.2689C5.08279 19.2799 5.21956 19.2909 5.36772 19.2909C5.40191 19.2909 5.4361 19.2909 5.47029 19.2909C5.58427 19.2909 5.68684 19.302 5.80081 19.302C5.8464 19.302 5.89199 19.302 5.94898 19.302C6.00596 19.302 6.05155 19.302 6.10854 19.302C6.15413 19.302 6.21111 19.302 6.2567 19.302C6.30229 19.302 6.33648 19.302 6.38207 19.302C6.51884 19.302 6.667 19.2909 6.80377 19.2909C6.95193 19.2799 7.0887 19.2799 7.23686 19.2689C7.27105 19.2689 7.29385 19.2689 7.32804 19.2578C7.33944 19.2578 7.35083 19.2578 7.36223 19.2578C7.4876 19.2468 7.61297 19.2358 7.73834 19.2247C7.74974 19.2247 7.74974 19.2247 7.76113 19.2247C7.9093 19.2027 8.06886 19.1916 8.21702 19.1696C8.22842 19.1696 8.23982 19.1696 8.25121 19.1696C9.02623 19.0592 9.78984 18.8826 10.5307 18.6509C10.5421 18.6509 10.5421 18.6509 10.5535 18.6509C10.8726 18.5516 11.1803 18.4412 11.488 18.3198H11.4994L11.5222 18.3088C12.7987 17.8011 13.9954 17.1169 15.0895 16.2672C15.1921 16.1899 15.2947 16.1127 15.3859 16.0244C15.4087 16.0023 15.4315 15.9802 15.4543 15.9692C15.5796 15.8699 15.6936 15.7595 15.819 15.6602L15.8304 15.6492C15.8987 15.583 15.9785 15.5168 16.0469 15.4505C16.0697 15.4285 16.0925 15.4064 16.1153 15.3843C16.1495 15.3512 16.1951 15.3181 16.2293 15.274C16.2635 15.2409 16.309 15.1967 16.3432 15.1636C16.366 15.1305 16.4002 15.1084 16.423 15.0753C16.5142 14.987 16.6054 14.8877 16.6966 14.7884C16.7193 14.7663 16.7421 14.7332 16.7649 14.7111C16.8333 14.6339 16.9017 14.5566 16.9815 14.4794C17.0157 14.4463 17.0385 14.4132 17.0727 14.3801C17.1524 14.2808 17.2436 14.1814 17.3234 14.0821L17.3348 14.0711C17.426 13.9607 17.5171 13.8504 17.5969 13.74C17.6083 13.7179 17.6311 13.6959 17.6425 13.6738C17.7223 13.5634 17.8021 13.4531 17.8819 13.3427C17.8819 13.3427 17.8819 13.3317 17.8933 13.3317C17.9844 13.2103 18.0642 13.0779 18.1554 12.9565C18.1554 12.9565 18.1554 12.9454 18.1668 12.9454C18.6569 12.2061 19.0786 11.4336 19.4091 10.628C19.4091 10.628 19.4091 10.628 19.4091 10.6169C19.4547 10.4955 19.5117 10.3741 19.5573 10.2527V10.2417C20.0587 8.9395 20.3551 7.56005 20.4348 6.14748C20.4348 6.0923 20.4348 6.04816 20.4462 5.99298C20.4576 5.66191 20.5716 5.37499 20.7768 5.1322C20.9477 4.9446 21.0161 4.69078 20.9705 4.44799L20.5716 2.26293C20.5374 2.07533 20.6172 1.9429 20.6742 1.87669C20.7312 1.81047 20.8451 1.70011 21.0389 1.68908C21.301 1.66701 21.5404 1.86565 21.586 2.14154L21.9507 4.12796C21.9963 4.40385 22.19 4.6356 22.4521 4.74595C22.7029 4.84528 22.908 5.02185 23.0676 5.25359C24.5834 7.33933 25.3242 9.82236 25.2559 12.3937Z" fill="white"/>
<path d="M21.6662 16.8624C21.2673 16.6086 20.7431 16.719 20.4809 17.0942C18.8625 19.4779 16.1614 20.9567 13.2437 21.0449C12.4345 21.067 11.6253 20.9898 10.8503 20.8132C10.3944 20.7028 9.92711 20.9787 9.82453 21.4312C9.71056 21.8726 9.99549 22.3251 10.4628 22.4244C11.272 22.612 12.1154 22.7113 12.9588 22.7113C13.0727 22.7113 13.1981 22.7113 13.3121 22.7113C16.7768 22.601 20.0022 20.8463 21.917 18.0101C22.1791 17.6239 22.0651 17.1052 21.6662 16.8624Z" fill="white"/>
</g>
<defs>
<clipPath id="clip0">
<rect width="27" height="26" fill="white"/>
</clipPath>
</defs>
</svg>
