<svg width="75" height="75" viewBox="0 0 75 75" fill="none" xmlns="http://www.w3.org/2000/svg">
<path d="M46.25 19.6875C44.0625 19.6875 43.125 19.6875 37.5 19.6875C31.875 19.6875 30.9375 19.6875 28.75 19.6875C22.8125 20 20 22.8125 19.6875 28.75C19.6875 30.9375 19.6875 31.875 19.6875 37.5C19.6875 43.125 19.6875 44.0625 19.6875 46.25C20 52.1875 22.8125 55 28.75 55.3125C30.9375 55.3125 31.875 55.3125 37.5 55.3125C43.4375 55.3125 44.0625 55.3125 46.25 55.3125C52.1875 55 55 52.1875 55.3125 46.25C55.3125 44.0625 55.3125 43.125 55.3125 37.5C55.3125 31.875 55.3125 30.9375 55.3125 28.75C55 22.8125 52.1875 20 46.25 19.6875ZM37.5 48.75C31.25 48.75 26.25 43.75 26.25 37.5C26.25 31.25 31.25 26.25 37.5 26.25C43.75 26.25 48.75 31.25 48.75 37.5C48.75 43.75 43.75 48.75 37.5 48.75ZM49.0625 28.4375C47.5 28.4375 46.5625 27.1875 46.5625 25.9375C46.5625 24.6875 47.8125 23.4375 49.0625 23.4375C50.3125 23.4375 51.5625 24.6875 51.5625 25.9375C51.875 27.1875 50.625 28.4375 49.0625 28.4375ZM44.6875 37.5C44.6875 41.5625 41.5625 44.6875 37.5 44.6875C33.4375 44.6875 30.3125 41.5625 30.3125 37.5C30.3125 33.4375 33.4375 30.3125 37.5 30.3125C41.5625 30.3125 44.6875 33.4375 44.6875 37.5ZM37.5 0C16.875 0 0 16.875 0 37.5C0 58.125 16.875 75 37.5 75C58.125 75 75 58.125 75 37.5C75 16.875 58.125 0 37.5 0ZM59.375 46.5625C59.0625 54.375 54.6875 59.0625 46.5625 59.375C44.375 59.375 43.4375 59.375 37.5 59.375C31.5625 59.375 30.9375 59.375 28.4375 59.375C20.625 59.0625 15.9375 54.6875 15.625 46.5625C15.625 44.375 15.625 43.4375 15.625 37.5C15.625 31.5625 15.625 30.9375 15.625 28.4375C15.9375 20.625 20.3125 15.9375 28.4375 15.625C30.625 15.625 31.5625 15.625 37.5 15.625C43.4375 15.625 44.0625 15.625 46.5625 15.625C54.375 15.9375 59.0625 20.3125 59.375 28.4375C59.375 30.625 59.375 31.5625 59.375 37.5C59.375 43.4375 59.375 44.0625 59.375 46.5625Z" fill="white"/>
</svg>
