<svg width="35" height="35" viewBox="0 0 35 35" fill="none" xmlns="http://www.w3.org/2000/svg">
<path d="M20.7083 22.3125C20.8542 22.4583 20.8542 22.6042 20.7083 22.75C19.9792 23.4792 18.9583 23.7708 17.5 23.7708C16.0417 23.7708 14.875 23.4792 14.2917 22.75C14.1458 22.6042 14.1458 22.4583 14.2917 22.3125C14.4375 22.1667 14.5833 22.1667 14.7292 22.3125C15.3125 22.8958 16.1875 23.1875 17.5 23.1875C18.8125 23.1875 19.6875 22.8958 20.2708 22.3125C20.4167 22.3125 20.7083 22.3125 20.7083 22.3125ZM15.75 18.8125C15.75 18.0833 15.1667 17.5 14.4375 17.5C13.7083 17.5 13.125 18.0833 13.125 18.8125C13.125 19.5417 13.7083 20.125 14.4375 20.125C15.1667 20.125 15.75 19.5417 15.75 18.8125ZM35 17.5C35 27.125 27.125 35 17.5 35C7.875 35 0 27.125 0 17.5C0 7.875 7.875 0 17.5 0C27.125 0 35 7.875 35 17.5ZM27.7083 17.3542C27.7083 16.0417 26.6875 15.1667 25.5208 15.1667C24.9375 15.1667 24.3542 15.4583 23.9167 15.75C22.3125 14.7292 20.2708 14.1458 17.9375 14L19.25 10.0625L22.6042 10.7917C22.6042 11.8125 23.4792 12.6875 24.5 12.6875C25.5208 12.6875 26.3958 11.8125 26.3958 10.7917C26.3958 9.77083 25.5208 8.89583 24.5 8.89583C23.7708 8.89583 23.0417 9.33333 22.75 10.0625L19.1042 9.1875C18.9583 9.1875 18.8125 9.1875 18.6667 9.33333L17.2083 13.7083C14.7292 13.7083 12.5417 14.4375 10.9375 15.4583C10.5 15.0208 10.0625 14.875 9.47917 14.875C8.3125 15.0208 7.29167 16.0417 7.29167 17.3542C7.29167 18.2292 7.72917 18.9583 8.45833 19.25C8.45833 19.5417 8.3125 19.6875 8.3125 19.9792C8.3125 23.3333 12.3958 25.9583 17.5 25.9583C22.6042 25.9583 26.6875 23.1875 26.6875 19.9792C26.6875 19.6875 26.6875 19.5417 26.6875 19.25C27.2708 18.9583 27.7083 18.2292 27.7083 17.3542ZM20.5625 17.5C19.8333 17.5 19.25 18.0833 19.25 18.8125C19.25 19.5417 19.8333 20.125 20.5625 20.125C21.2917 20.125 21.875 19.5417 21.875 18.8125C22.0208 18.0833 21.2917 17.5 20.5625 17.5Z" fill="white"/>
</svg>
