<svg width="75" height="75" viewBox="0 0 75 75" fill="none" xmlns="http://www.w3.org/2000/svg">
<g clip-path="url(#clip0)">
<path d="M44.6843 47.7085C44.9937 48.0178 44.9937 48.3271 44.6843 48.6365C43.1376 50.1832 40.9722 50.8019 37.8788 50.8019C34.7853 50.8019 32.3106 50.1832 31.0732 48.6365C30.7639 48.3271 30.7639 48.0178 31.0732 47.7085C31.3826 47.3991 31.6919 47.3991 32.0013 47.7085C33.2386 48.9458 35.0947 49.5645 37.8788 49.5645C40.6629 49.5645 42.5189 48.9458 43.7563 47.7085C44.0656 47.7085 44.6843 47.7085 44.6843 47.7085ZM34.1667 40.2842C34.1667 38.7375 32.9293 37.5001 31.3826 37.5001C29.8358 37.5001 28.5985 38.7375 28.5985 40.2842C28.5985 41.8309 29.8358 43.0683 31.3826 43.0683C32.9293 43.0683 34.1667 41.8309 34.1667 40.2842ZM75 37.5001C75 57.9168 58.2954 74.6213 37.8788 74.6213C17.4621 74.6213 0.757568 57.9168 0.757568 37.5001C0.757568 17.0835 17.4621 0.378906 37.8788 0.378906C58.2954 0.378906 75 17.0835 75 37.5001ZM59.5328 37.1908C59.5328 34.4067 57.3674 32.5506 54.8927 32.5506C53.6553 32.5506 52.4179 33.1693 51.4899 33.788C48.0871 31.6226 43.7563 30.3852 38.8068 30.0759L41.5909 21.7236L48.7058 23.2703C48.7058 25.4357 50.5619 27.2918 52.7273 27.2918C54.8927 27.2918 56.7487 25.4357 56.7487 23.2703C56.7487 21.1049 54.8927 19.2489 52.7273 19.2489C51.1805 19.2489 49.6338 20.1769 49.0151 21.7236L41.2816 19.8675C40.9722 19.8675 40.6629 19.8675 40.3535 20.1769L37.2601 29.4572C32.0013 29.4572 27.3611 31.0039 23.9583 33.1693C23.0303 32.2413 22.1023 31.9319 20.8649 31.9319C18.3901 32.2413 16.2247 34.4067 16.2247 37.1908C16.2247 39.0468 17.1528 40.5936 18.6995 41.2122C18.6995 41.8309 18.3901 42.1403 18.3901 42.759C18.3901 49.8739 27.0518 55.442 37.8788 55.442C48.7058 55.442 57.3674 49.5645 57.3674 42.759C57.3674 42.1403 57.3674 41.8309 57.3674 41.2122C58.6048 40.5936 59.5328 39.0468 59.5328 37.1908ZM44.375 37.5001C42.8283 37.5001 41.5909 38.7375 41.5909 40.2842C41.5909 41.8309 42.8283 43.0683 44.375 43.0683C45.9217 43.0683 47.1591 41.8309 47.1591 40.2842C47.4684 38.7375 45.9217 37.5001 44.375 37.5001Z" fill="white"/>
</g>
<defs>
<clipPath id="clip0">
<rect width="74.2424" height="74.2424" fill="white" transform="translate(0.757568 0.378906)"/>
</clipPath>
</defs>
</svg>
