<svg width="75" height="75" viewBox="0 0 75 75" fill="none" xmlns="http://www.w3.org/2000/svg">
<g clip-path="url(#clip0)">
<path fill-rule="evenodd" clip-rule="evenodd" d="M0 37.5001C0 58.0715 16.5499 74.6213 37.1212 74.6213C57.6926 74.6213 74.2424 58.0715 74.2424 37.5001C74.2424 16.9288 57.6926 0.378906 37.1212 0.378906C16.5499 0.378906 0 16.9288 0 37.5001ZM30.3157 54.514L30.9343 45.079L48.1029 29.6119C48.8763 28.9932 47.9482 28.6838 46.8655 29.1478L25.6755 42.6043L16.5499 39.6655C14.5391 39.0468 14.5391 37.6548 17.0139 36.7268L52.7431 22.961C54.4444 22.1876 55.9912 23.425 55.3725 25.8997L49.3403 54.514C48.8763 56.5247 47.6389 56.9888 45.9375 56.0607L36.6572 49.2552L32.1717 53.586C31.7077 54.05 31.2437 54.514 30.3157 54.514Z" fill="white"/>
</g>
<defs>
<clipPath id="clip0">
<rect width="74.2424" height="74.2424" fill="white" transform="translate(0 0.378906)"/>
</clipPath>
</defs>
</svg>
