<svg width="35" height="35" viewBox="0 0 35 35" fill="none" xmlns="http://www.w3.org/2000/svg">
<path fill-rule="evenodd" clip-rule="evenodd" d="M0 17.5C0 27.1979 7.80208 35 17.5 35C27.1979 35 35 27.1979 35 17.5C35 7.80208 27.1979 0 17.5 0C7.80208 0 0 7.80208 0 17.5ZM14.2917 25.5208L14.5833 21.0729L22.6771 13.7812C23.0417 13.4896 22.6042 13.3438 22.0938 13.5625L12.1042 19.9062L7.80208 18.5208C6.85417 18.2292 6.85417 17.5729 8.02083 17.1354L24.8646 10.6458C25.6667 10.2813 26.3958 10.8646 26.1042 12.0312L23.2604 25.5208C23.0417 26.4688 22.4583 26.6875 21.6563 26.25L17.2813 23.0417L15.1667 25.0833C14.9479 25.3021 14.7292 25.5208 14.2917 25.5208Z" fill="white"/>
</svg>
