<svg width="74" height="73" viewBox="0 0 74 73" fill="none" xmlns="http://www.w3.org/2000/svg">
<g clip-path="url(#clip0)">
<path d="M37.0001 0.121094C17.0822 0.121094 0.939453 16.2639 0.939453 36.1817C0.939453 56.0996 17.0822 72.2423 37.0001 72.2423C56.9179 72.2423 73.0607 56.0996 73.0607 36.1817C73.0607 16.2639 56.9179 0.121094 37.0001 0.121094ZM53.0724 27.9413C53.0865 28.2934 53.1006 28.6597 53.1006 29.0118C53.1006 39.9568 44.7615 52.5921 29.5203 52.5921C25.0127 52.5921 20.6038 51.3103 16.8146 48.8733C17.4625 48.9438 18.1246 48.986 18.7866 48.986C22.5195 48.986 26.1396 47.7465 29.0836 45.4363C25.5339 45.3659 22.4209 43.0558 21.3362 39.6892C22.5758 39.9286 23.8577 39.8864 25.0832 39.5483C21.2235 38.7595 18.4345 35.3647 18.4345 31.4206C18.4345 31.3924 18.4345 31.3501 18.4345 31.322C19.5895 31.9558 20.8714 32.3221 22.1814 32.3643C18.5472 29.9274 17.4203 25.0818 19.6177 21.3067C23.8295 26.4904 30.0274 29.6316 36.6902 29.9697C36.0281 27.0961 36.9296 24.0817 39.0848 22.0533C42.4232 18.9121 47.6633 19.0811 50.8045 22.4054C52.6639 22.0392 54.4387 21.363 56.0587 20.3911C55.4389 22.3068 54.1429 23.9408 52.4103 24.9691C54.0584 24.7719 55.6502 24.3352 57.1715 23.6591C56.0868 25.3213 54.6923 26.7721 53.0724 27.9413Z" fill="white"/>
</g>
<defs>
<clipPath id="clip0">
<rect width="72.1212" height="72.1212" fill="white" transform="translate(0.939453 0.121094)"/>
</clipPath>
</defs>
</svg>
