<svg width="34" height="34" viewBox="0 0 34 34" fill="none" xmlns="http://www.w3.org/2000/svg">
<path d="M17 0C7.61016 0 0 7.61016 0 17C0 26.3898 7.61016 34 17 34C26.3898 34 34 26.3898 34 17C34 7.61016 26.3898 0 17 0ZM24.577 13.1152C24.5836 13.2812 24.5902 13.4539 24.5902 13.6199C24.5902 18.7797 20.659 24.7363 13.4738 24.7363C11.3488 24.7363 9.27031 24.132 7.48398 22.9832C7.78945 23.0164 8.10156 23.0363 8.41367 23.0363C10.1734 23.0363 11.8801 22.452 13.268 21.3629C11.5945 21.3297 10.127 20.2406 9.61563 18.6535C10.2 18.7664 10.8043 18.7465 11.382 18.5871C9.5625 18.2152 8.24766 16.6148 8.24766 14.7555C8.24766 14.7422 8.24766 14.7223 8.24766 14.709C8.79219 15.0078 9.39648 15.1805 10.0141 15.2004C8.30078 14.0516 7.76953 11.7672 8.80547 9.9875C10.791 12.4312 13.7129 13.9121 16.8539 14.0715C16.5418 12.7168 16.9668 11.2957 17.9828 10.3395C19.5566 8.85859 22.027 8.93828 23.5078 10.5055C24.3844 10.3328 25.2211 10.0141 25.9848 9.55586C25.6926 10.459 25.0816 11.2293 24.2648 11.7141C25.0418 11.6211 25.7922 11.4152 26.5094 11.0965C25.998 11.8801 25.3406 12.5641 24.577 13.1152Z" fill="white"/>
</svg>
