<svg width="75" height="75" viewBox="0 0 75 75" fill="none" xmlns="http://www.w3.org/2000/svg">
<path d="M31.875 55.625L37.5 50H47.8125L54.375 43.4375V22.8125H23.125V50H31.875V55.625ZM44.0625 30.3125H48.125V41.875H44.0625V30.3125ZM33.4375 30.3125H37.5V41.875H33.4375V30.3125ZM37.5 0C16.875 0 0 16.875 0 37.5C0 58.125 16.875 75 37.5 75C58.125 75 75 58.125 75 37.5C75 16.875 58.125 0 37.5 0ZM58.4375 45.625L46.875 56.875H38.4375L32.8125 62.5H27.1875V56.875H16.5625V26.25L19.6875 18.75H58.4375V45.625Z" fill="white"/>
</svg>
